# xmcd
#
# Track frame offsets:
#	183
#	14538
#	29058
#	44623
#	59545
#	74518
#	89178
#	104870
#	119238
#	133440
#	148413
#	163263
#	178038
#	193028
#	206040
#	220268
#	236183
#	250993
#	266385
#	280968
#	296223
#	310318
#	326005
#
# Disc length: 4563 seconds
#
# Revision: 0
# Processed by: cddbd v1.5.1PL2 Copyright (c) Steve Scherf et al.
# Submitted via: dBpowerAMP V4.0
#
DISCID=a011d117
DTITLE=Bessie Smith - Bessie Smith 1923-24
DYEAR=1924
DGENRE=Blues
TTITLE0=Whoa, Tillie, Take Your Time 10-15-23
TTITLE1=My Sweetie Went Away 10-15-23
TTITLE2=Any Woman's Blues 10-16-23
TTITLE3=Chicago Bound blues 12-04-23
TTITLE4=Mistreatin' Daddy 12-04-23
TTITLE5=Frosty Mornin' blues 01-08-24
TTITLE6=Haunted House blues 01-09-24
TTITLE7=Eavesdropper's Blues 01-09-24
TTITLE8=Easy come, Easy go Blues 01--10-24
TTITLE9=Sorrowful Blues 04-04-24
TTITLE10=Pinchbacks, Take 'Em Away 04-04-24
TTITLE11=Rockin' Chair Blues 04-04-24
TTITLE12=Ticket Agent Ease Your Window Down 04-05-24
TTITLE13=Boweavil Blues 04-07-24
TTITLE14=Hateful Blues 04-08-24
TTITLE15=Frankie blues 04-08-24
TTITLE16=Moonshine blues 04-09-24
TTITLE17=Lou'siana Low Down Blues 07-22-24
TTITLE18=Mountain Top Blues 07-22-24
TTITLE19=Work House Blues 07-23-24
TTITLE20=House Rent Blues 07-23-24
TTITLE21=Salt Water Blues 07-31-24
TTITLE22=Rainy Weather Blues 08-08-24
EXTD=
EXTT0=
EXTT1=
EXTT2=
EXTT3=
EXTT4=
EXTT5=
EXTT6=
EXTT7=
EXTT8=
EXTT9=
EXTT10=
EXTT11=
EXTT12=
EXTT13=
EXTT14=
EXTT15=
EXTT16=
EXTT17=
EXTT18=
EXTT19=
EXTT20=
EXTT21=
EXTT22=
PLAYORDER=
